<?xml version="1.0" encoding="UTF-8"?>
<svg width="128px" height="128px" viewBox="0 0 128 128" version="1.1" xmlns="http://www.w3.org/2000/svg" xmlns:xlink="http://www.w3.org/1999/xlink">
    <!-- Generator: Sketch 62 (91390) - https://sketch.com -->
    <title>Group</title>
    <desc>Created with Sketch.</desc>
    <defs>
        <linearGradient x1="50%" y1="0%" x2="50%" y2="100%" id="linearGradient-1">
            <stop stop-color="#48A178" offset="0%"></stop>
            <stop stop-color="#011C32" offset="100%"></stop>
        </linearGradient>
    </defs>
    <g id="Page-1" stroke="none" stroke-width="1" fill="none" fill-rule="evenodd">
        <g id="Group" transform="translate(0.000000, -0.000000)" fill-rule="nonzero">
            <path d="M30.9276734,127.448074 C29.3564082,126.529501 29.1265306,125.227319 29.1265306,116.767054 L29.1265306,108.726932 L26.2909388,108.726932 C24.0300408,108.726932 23.263347,108.574271 22.2288979,107.884037 C19.9301225,106.314373 19.3541225,105.166157 19.2013062,101.797187 L19.0863674,98.772681 L11.0367347,98.772681 C0.305632653,98.772681 0,98.6200198 0,93.030296 C0,90.0827728 0.0770612243,89.8531296 1.11151021,88.7805914 L2.22302041,87.6702144 L10.6919184,87.6702144 L19.1608163,87.6702144 L19.1608163,83.4974918 L19.1608163,79.2856269 L10.4999184,79.1708054 L1.83902041,79.0559837 L0.919510208,77.9847501 C0.114938775,77.0270336 0,76.5299082 0,73.6580634 C0,70.556575 0.037877551,70.3269318 1.11151021,69.2556982 L2.22302041,68.1453213 L10.6919184,68.1453213 L19.1608163,68.1453213 L19.1608163,63.9347606 L19.1608163,59.722895 L10.6919184,59.722895 L2.22302041,59.722895 L1.11151021,58.6125178 C0.037877551,57.5412845 0,57.3116413 0,54.210153 C0,51.3383078 0.114938775,50.8411824 0.919510208,49.8834659 L1.83902041,48.8122323 L10.4999184,48.6974109 L19.1608163,48.5825891 L19.1608163,44.3707238 L19.1608163,40.1980019 L10.6919184,40.1980019 L2.22302041,40.1980019 L1.11151021,39.087625 C0.0770612243,38.0163914 0,37.7867482 0,34.8379206 C0,29.2481957 0.306938775,29.0955352 11.1137959,29.0955352 L19.1621225,29.0955352 L19.1621225,26.2628339 C19.1621225,24.0042405 19.3149388,23.2383283 20.0437551,22.2049338 C21.5771429,19.9085015 22.7265306,19.3330887 26.0989388,19.1804282 L29.1265306,19.0656066 L29.1265306,11.0254842 C29.1265306,0.305321101 29.3185307,1.42108547e-14 35.1046531,1.42108547e-14 C37.7874285,1.42108547e-14 38.0943674,0.0769826707 39.1288163,1.11037717 L40.2403264,2.22075434 L40.2403264,10.6823242 L40.2403264,19.1425892 L44.4173062,19.1425892 L48.6334694,19.1425892 L48.748408,10.4905198 L48.8633469,1.83845056 L49.9369795,0.919877674 C50.8956736,0.116126402 51.3933062,0.00130479103 54.2680816,0.00130479103 C57.3727347,0.00130479103 57.6026122,0.0391437309 58.6749389,1.11168196 L59.786449,2.22205912 L59.786449,10.683629 L59.786449,19.143894 L64,19.143894 L68.2161632,19.143894 L68.2161632,10.683629 L68.2161632,2.22205912 L69.3276736,1.11168196 C70.4,0.0391437309 70.6298774,0.00130479103 73.7345306,0.00130479103 C76.6093062,0.00130479103 77.1069389,0.116126402 78.0656326,0.919877674 L79.1379594,1.83845056 L79.2528979,10.4905198 L79.3678368,19.1425892 L83.584,19.1425892 L87.7609792,19.1425892 L87.7609792,10.6823242 L87.7609792,2.22075434 L88.8724896,1.11037717 C89.9069386,0.0769826707 90.2138778,1.42108547e-14 92.8966528,1.42108547e-14 C98.682775,1.42108547e-14 98.874775,0.306625892 98.874775,11.0254842 L98.874775,19.0656066 L101.902367,19.1804282 C105.159837,19.3330887 106.271347,19.8693578 107.842612,21.9752905 C108.455184,22.7790418 108.685061,23.7367584 108.8,26.0710296 L108.914939,29.0955352 L116.963266,29.0955352 C127.694367,29.0955352 128,29.2873394 128,35.0675638 C128,37.7476045 127.922938,38.0542304 126.88849,39.087625 L125.776979,40.1980019 L117.306775,40.1980019 L108.837878,40.1980019 L108.837878,44.3707238 L108.837878,48.5825891 L117.498775,48.6974109 L126.159674,48.8122323 L127.079184,49.8834659 C127.883755,50.8411824 127.998694,51.3383078 127.998694,54.210153 C127.998694,57.3116413 127.960816,57.5412845 126.887184,58.6125178 L125.775674,59.722895 L117.305469,59.722895 L108.836571,59.722895 L108.836571,63.9347606 L108.836571,68.1466259 L117.305469,68.1466259 L125.775674,68.1466259 L126.887184,69.2570032 C127.960816,70.3295414 127.998694,70.5591843 127.998694,73.659368 C127.998694,76.5312131 127.883755,77.0283382 127.079184,77.986055 L126.159674,79.0572886 L117.498775,79.1721101 L108.837878,79.2869315 L108.837878,83.4987968 L108.837878,87.6715194 L117.306775,87.6715194 L125.776979,87.6715194 L126.88849,88.781896 C127.922938,89.8544346 128,90.0840778 128,93.031601 C128,98.6213248 127.693061,98.7739856 116.886204,98.7739856 L108.837878,98.7739856 L108.837878,101.606687 C108.837878,103.86528 108.685061,104.631193 107.956245,105.703731 C106.422857,108.000163 104.890775,108.728237 101.709061,108.728237 L98.8734698,108.728237 L98.8734698,116.768359 C98.8734698,127.5642 98.7206528,127.870826 93.125225,127.870826 C90.1746938,127.870826 89.944816,127.793843 88.871184,126.760449 L87.7596736,125.650071 L87.7596736,117.189806 L87.7596736,108.729542 L83.5826934,108.729542 L79.3665306,108.729542 L79.251592,117.38161 L79.1366531,126.03368 L78.0643264,126.952253 C77.1056326,127.756004 76.608,127.870826 73.7332246,127.870826 C70.6285715,127.870826 70.3986938,127.832987 69.3263674,126.760449 L68.2148573,125.650071 L68.2148573,117.189806 L68.2148573,108.729542 L64,108.729542 L59.7838368,108.729542 L59.7838368,117.189806 L59.7838368,125.650071 L58.6723264,126.760449 C57.5986938,127.831682 57.3688163,127.870826 54.2654694,127.870826 C51.3906938,127.870826 50.8930611,127.756004 49.9343674,126.952253 L48.8607347,126.03368 L48.7457958,117.38161 L48.6308573,108.729542 L44.4146938,108.729542 L40.2377142,108.729542 L40.2377142,117.189806 L40.2377142,125.650071 L39.1262042,126.760449 C38.0525715,127.793843 37.8226938,127.870826 34.7951021,127.870826 C33.034449,127.869521 31.3103674,127.677717 30.9276734,127.448074 Z" id="Shape" fill="url(#linearGradient-1)"></path>
            <path d="M38.3684211,81 C38.7368421,79.0856031 39.1578947,77.7029831 40,75.5226978 L42.5263158,68.9286641 L60.4736842,68.9286641 L63.0526316,75.5226978 C63.6315789,77.1180285 64.2631579,79.1919585 64.6315789,81 L71,81 C70.2105263,79.61738 69.5263158,78.075227 68.2105263,74.8313878 L56.4210526,45.0518807 C55.1578947,41.8612192 54.8947368,41.0635538 54.6315789,40 L48.2105263,40 C47.9473684,41.2762646 47.5263158,42.4993515 46.5263158,45.0518807 L34.7894737,74.8313878 C33.5263158,78.0220493 32.9473684,79.2983139 32,81 L38.3684211,81 Z" id="A" fill="#FFFFFF"></path>
            <path d="M84.5421053,81 C85.7421053,81 86.8289474,80.8519587 87.8026316,80.555876 C88.7763158,80.2597933 89.65,79.8606104 90.4236842,79.3583273 C91.1973684,78.8560442 91.8789474,78.2797404 92.4684211,77.629416 C93.0578947,76.9790916 93.5684211,76.2996876 94,75.591204 L94,75.591204 L92.5157895,74.6395097 C92.2210526,75.2316751 91.8421053,75.8159096 91.3789474,76.3922134 C90.9157895,76.9685172 90.3921053,77.4866619 89.8078947,77.9466474 C89.2236842,78.406633 88.5894737,78.77938 87.9052632,79.0648882 C87.2210526,79.3503965 86.5105263,79.4931507 85.7736842,79.4931507 C84.5421053,79.4931507 83.4,79.2790195 82.3473684,78.850757 C81.2947368,78.4224946 80.3815789,77.8038933 79.6078947,76.9949531 C78.8342105,76.186013 78.2263158,75.1973083 77.7842105,74.0288392 C77.3421053,72.8603701 77.1210526,71.5412161 77.1210526,70.0713771 C77.1210526,68.5909637 77.3447368,67.2612353 77.7921053,66.0821918 C78.2394737,64.9031483 78.8552632,63.9012257 79.6394737,63.0764239 C80.4236842,62.2516222 81.3421053,61.6171593 82.3947368,61.1730353 C83.4473684,60.7289113 84.5789474,60.5068493 85.7894737,60.5068493 C87.2,60.5068493 88.4473684,60.900745 89.5315789,61.6885364 C90.6157895,62.4763278 91.5947368,63.7214612 92.4684211,65.4239366 L92.4684211,65.4239366 L94,64.408796 C93.5684211,63.7003124 93.05,63.0209084 92.4447368,62.370584 C91.8394737,61.7202596 91.15,61.1465994 90.3763158,60.6496035 C89.6026316,60.1526075 88.7447368,59.7534247 87.8026316,59.4520548 C86.8605263,59.1506849 85.8315789,59 84.7157895,59 C83.5473684,59 82.4473684,59.1348234 81.4157895,59.4044701 C80.3842105,59.6741168 79.4342105,60.0547945 78.5657895,60.5465032 C77.6973684,61.038212 76.9184211,61.6250901 76.2289474,62.3071377 C75.5394737,62.9891853 74.9552632,63.7399664 74.4763158,64.5594809 C73.9973684,65.3789954 73.6315789,66.2566691 73.3789474,67.1925018 C73.1263158,68.1283345 73,69.0879596 73,70.0713771 C73,71.5517904 73.2763158,72.9555395 73.8289474,74.2826244 C74.3815789,75.6097092 75.1631579,76.7702475 76.1736842,77.7642394 C77.1842105,78.7582312 78.3973684,79.5460226 79.8131579,80.1276136 C81.2289474,80.7092045 82.8052632,81 84.5421053,81 Z" id="C" fill="#FFFFFF"></path>
        </g>
    </g>
</svg>