<?xml version="1.0" encoding="UTF-8"?>
<svg width="128px" height="128px" viewBox="0 0 128 128" version="1.1" xmlns="http://www.w3.org/2000/svg" xmlns:xlink="http://www.w3.org/1999/xlink">
    <!-- Generator: Sketch 62 (91390) - https://sketch.com -->
    <title>autodev</title>
    <desc>Created with Sketch.</desc>
    <g id="Page-1" stroke="none" stroke-width="1" fill="none" fill-rule="evenodd">
        <g id="autodev" fill-rule="nonzero">
            <g id="Group" transform="translate(64.000000, 64.000000) scale(-1, 1) rotate(-180.000000) translate(-64.000000, -64.000000) translate(0.000000, -0.000000)" fill="#38A98B">
                <path d="M30.9276734,127.448074 C29.3564082,126.529501 29.1265306,125.227319 29.1265306,116.767054 L29.1265306,108.726932 L26.2909388,108.726932 C24.0300408,108.726932 23.263347,108.574271 22.2288979,107.884037 C19.9301225,106.314373 19.3541225,105.166157 19.2013062,101.797187 L19.0863674,98.772681 L11.0367347,98.772681 C0.305632653,98.772681 -7.42444656e-16,98.6200198 -7.42444656e-16,93.030296 C-7.42444656e-16,90.0827728 0.0770612243,89.8531296 1.11151021,88.7805914 L2.22302041,87.6702144 L10.6919184,87.6702144 L19.1608163,87.6702144 L19.1608163,83.4974918 L19.1608163,79.2856269 L10.4999184,79.1708054 L1.83902041,79.0559837 L0.919510208,77.9847501 C0.114938775,77.0270336 -7.42444656e-16,76.5299082 -7.42444656e-16,73.6580634 C-7.42444656e-16,70.556575 0.037877551,70.3269318 1.11151021,69.2556982 L2.22302041,68.1453213 L10.6919184,68.1453213 L19.1608163,68.1453213 L19.1608163,63.9347606 L19.1608163,59.722895 L10.6919184,59.722895 L2.22302041,59.722895 L1.11151021,58.6125178 C0.037877551,57.5412845 -7.42444656e-16,57.3116413 -7.42444656e-16,54.210153 C-7.42444656e-16,51.3383078 0.114938775,50.8411824 0.919510208,49.8834659 L1.83902041,48.8122323 L10.4999184,48.6974109 L19.1608163,48.5825891 L19.1608163,44.3707238 L19.1608163,40.1980019 L10.6919184,40.1980019 L2.22302041,40.1980019 L1.11151021,39.087625 C0.0770612243,38.0163914 -7.42444656e-16,37.7867482 -7.42444656e-16,34.8379206 C-7.42444656e-16,29.2481957 0.306938775,29.0955352 11.1137959,29.0955352 L19.1621225,29.0955352 L19.1621225,26.2628339 C19.1621225,24.0042405 19.3149388,23.2383283 20.0437551,22.2049338 C21.5771429,19.9085015 22.7265306,19.3330887 26.0989388,19.1804282 L29.1265306,19.0656066 L29.1265306,11.0254842 C29.1265306,0.305321101 29.3185307,0 35.1046531,0 C37.7874285,0 38.0943674,0.0769826707 39.1288163,1.11037717 L40.2403264,2.22075434 L40.2403264,10.6823242 L40.2403264,19.1425892 L44.4173062,19.1425892 L48.6334694,19.1425892 L48.748408,10.4905198 L48.8633469,1.83845056 L49.9369795,0.919877674 C50.8956736,0.116126402 51.3933062,0.00130479103 54.2680816,0.00130479103 C57.3727347,0.00130479103 57.6026122,0.0391437309 58.6749389,1.11168196 L59.786449,2.22205912 L59.786449,10.683629 L59.786449,19.143894 L64,19.143894 L68.2161632,19.143894 L68.2161632,10.683629 L68.2161632,2.22205912 L69.3276736,1.11168196 C70.4,0.0391437309 70.6298774,0.00130479103 73.7345306,0.00130479103 C76.6093062,0.00130479103 77.1069389,0.116126402 78.0656326,0.919877674 L79.1379594,1.83845056 L79.2528979,10.4905198 L79.3678368,19.1425892 L83.584,19.1425892 L87.7609792,19.1425892 L87.7609792,10.6823242 L87.7609792,2.22075434 L88.8724896,1.11037717 C89.9069386,0.0769826707 90.2138778,0 92.8966528,0 C98.682775,0 98.874775,0.306625892 98.874775,11.0254842 L98.874775,19.0656066 L101.902367,19.1804282 C105.159837,19.3330887 106.271347,19.8693578 107.842612,21.9752905 C108.455184,22.7790418 108.685061,23.7367584 108.8,26.0710296 L108.914939,29.0955352 L116.963266,29.0955352 C127.694367,29.0955352 128,29.2873394 128,35.0675638 C128,37.7476045 127.922938,38.0542304 126.88849,39.087625 L125.776979,40.1980019 L117.306775,40.1980019 L108.837878,40.1980019 L108.837878,44.3707238 L108.837878,48.5825891 L117.498775,48.6974109 L126.159674,48.8122323 L127.079184,49.8834659 C127.883755,50.8411824 127.998694,51.3383078 127.998694,54.210153 C127.998694,57.3116413 127.960816,57.5412845 126.887184,58.6125178 L125.775674,59.722895 L117.305469,59.722895 L108.836571,59.722895 L108.836571,63.9347606 L108.836571,68.1466259 L117.305469,68.1466259 L125.775674,68.1466259 L126.887184,69.2570032 C127.960816,70.3295414 127.998694,70.5591843 127.998694,73.659368 C127.998694,76.5312131 127.883755,77.0283382 127.079184,77.986055 L126.159674,79.0572886 L117.498775,79.1721101 L108.837878,79.2869315 L108.837878,83.4987968 L108.837878,87.6715194 L117.306775,87.6715194 L125.776979,87.6715194 L126.88849,88.781896 C127.922938,89.8544346 128,90.0840778 128,93.031601 C128,98.6213248 127.693061,98.7739856 116.886204,98.7739856 L108.837878,98.7739856 L108.837878,101.606687 C108.837878,103.86528 108.685061,104.631193 107.956245,105.703731 C106.422857,108.000163 104.890775,108.728237 101.709061,108.728237 L98.8734698,108.728237 L98.8734698,116.768359 C98.8734698,127.5642 98.7206528,127.870826 93.125225,127.870826 C90.1746938,127.870826 89.944816,127.793843 88.871184,126.760449 L87.7596736,125.650071 L87.7596736,117.189806 L87.7596736,108.729542 L83.5826934,108.729542 L79.3665306,108.729542 L79.251592,117.38161 L79.1366531,126.03368 L78.0643264,126.952253 C77.1056326,127.756004 76.608,127.870826 73.7332246,127.870826 C70.6285715,127.870826 70.3986938,127.832987 69.3263674,126.760449 L68.2148573,125.650071 L68.2148573,117.189806 L68.2148573,108.729542 L64,108.729542 L59.7838368,108.729542 L59.7838368,117.189806 L59.7838368,125.650071 L58.6723264,126.760449 C57.5986938,127.831682 57.3688163,127.870826 54.2654694,127.870826 C51.3906938,127.870826 50.8930611,127.756004 49.9343674,126.952253 L48.8607347,126.03368 L48.7457958,117.38161 L48.6308573,108.729542 L44.4146938,108.729542 L40.2377142,108.729542 L40.2377142,117.189806 L40.2377142,125.650071 L39.1262042,126.760449 C38.0525715,127.793843 37.8226938,127.870826 34.7951021,127.870826 C33.034449,127.869521 31.3103674,127.677717 30.9276734,127.448074 Z" id="Shape"></path>
            </g>
            <path d="M64.6848,76.8 C65.5509334,76.8 66.2005334,76.464 66.6336,75.792 C67.0666666,75.12 67.1189334,74.3658666 66.7904,73.5296 L66.7904,73.5296 L54.1568,43.3792 C53.7685334,42.3338666 53.0368,41.8112 51.9616,41.8112 C50.9461334,41.8112 50.2144,42.3338666 49.7664,43.3792 L49.7664,43.3792 L37.1776,73.44 C36.8192,74.2464 36.864,75.008 37.312,75.7248 C37.76,76.4416 38.4021334,76.8 39.2384,76.8 C39.6565334,76.8 40.0672,76.6805334 40.4704,76.4416 C40.8736,76.2026666 41.1797334,75.8442666 41.3888,75.3664 L41.3888,75.3664 L43.952,69.0976 L60.0096,69.0976 L62.5344,75.3664 C62.6688,75.7024 62.8662,75.9838 63.1266,76.2106 L63.408,76.4192 C63.8112,76.6730666 64.2368,76.8 64.6848,76.8 Z M58.4576,65.2416 L45.5296,65.2416 L52.0448,49.3184 L58.4576,65.2416 Z M89.0112,81.3696 C89.6085334,81.3696 90.1312,81.1456 90.5792,80.6976 C91.0272,80.2496 91.2512,79.712 91.2512,79.0848 C91.2512,78.4277334 91.0272,77.8826666 90.5792,77.4496 C90.1312,77.0165334 89.6085334,76.8 89.0112,76.8 L89.0112,76.8 L68,76.8 C67.3429334,76.8 66.7978666,77.0165334 66.3648,77.4496 C65.9317334,77.8826666 65.7152,78.4277334 65.7152,79.0848 C65.7152,79.712 65.9317334,80.2496 66.3648,80.6976 C66.7978666,81.1456 67.3429334,81.3696 68,81.3696 L68,81.3696 L89.0112,81.3696 Z" id="A_" fill="#FFFFFF"></path>
        </g>
    </g>
</svg>